HIERARCHY
ROOT Hips
{
	OFFSET 0.000000 0.000000 0.000000
	CHANNELS 6 Xposition Yposition Zposition Zrotation Yrotation Xrotation 
	JOINT Spine1
	{
		OFFSET -0.013727 5.003763 -0.053727
		CHANNELS 3 Zrotation Yrotation Xrotation
		JOINT Spine2
		{
			OFFSET -0.000000 7.125301 -0.029825
			CHANNELS 3 Zrotation Yrotation Xrotation
			JOINT Chest
			{
				OFFSET -0.000001 7.550064 -0.815971
				CHANNELS 3 Zrotation Yrotation Xrotation
				JOINT Neck1
				{
					OFFSET -0.181676 26.311296 -0.553349
					CHANNELS 3 Zrotation Yrotation Xrotation
					JOINT Neck2
					{
						OFFSET -0.000003 7.709399 2.302586
						CHANNELS 3 Zrotation Yrotation Xrotation
						JOINT Head
						{
							OFFSET -0.000005 6.128913 1.953709
							CHANNELS 3 Zrotation Yrotation Xrotation
							JOINT HeadEnd
							{
								OFFSET 0.003598 16.065401 -1.835380
								CHANNELS 3 Zrotation Yrotation Xrotation
								End Site
								{
									OFFSET 0.000000 0.000000 0.000000
								}
							}
							JOINT Jaw
							{
								OFFSET 0.002637 0.475591 3.094940
								CHANNELS 3 Zrotation Yrotation Xrotation
								End Site
								{
									OFFSET 0.000000 0.000000 0.000000
								}
							}
							JOINT LeftEye
							{
								OFFSET 3.206380 5.380207 7.586883
								CHANNELS 3 Zrotation Yrotation Xrotation
								End Site
								{
									OFFSET 0.000000 0.000000 0.000000
								}
							}
							JOINT RightEye
							{
								OFFSET -3.222440 5.361867 7.558234
								CHANNELS 3 Zrotation Yrotation Xrotation
								End Site
								{
									OFFSET 0.000000 0.000000 0.000000
								}
							}
						}
					}
				}
				JOINT LeftShoulder
				{
					OFFSET 1.621652 23.237164 5.113413
					CHANNELS 3 Zrotation Yrotation Xrotation
					JOINT LeftArm
					{
						OFFSET 14.919845 0.000000 -5.502327
						CHANNELS 3 Zrotation Yrotation Xrotation
						JOINT LeftForeArm
						{
							OFFSET 28.739309 0.000003 -0.002588
							CHANNELS 3 Zrotation Yrotation Xrotation
							JOINT LeftHand
							{
								OFFSET 27.093983 -0.000003 0.002609
								CHANNELS 3 Zrotation Yrotation Xrotation
								JOINT LeftHandThumb1
								{
									OFFSET 2.276480 -1.392046 3.191413
									CHANNELS 3 Zrotation Yrotation Xrotation
									JOINT LeftHandThumb2
									{
										OFFSET 4.012841 -1.828126 1.641655
										CHANNELS 3 Zrotation Yrotation Xrotation
										JOINT LeftHandThumb3
										{
											OFFSET 2.798516 0.000002 -0.000003
											CHANNELS 3 Zrotation Yrotation Xrotation
											JOINT LeftHandThumbEnd
											{
												OFFSET 3.180791 -0.000003 0.000003
												CHANNELS 3 Zrotation Yrotation Xrotation
												End Site
												{
													OFFSET 0.000000 0.000000 0.000000
												}
											}
										}
									}
								}
								JOINT LeftHandIndex1
								{
									OFFSET 3.247553 -0.531998 2.296169
									CHANNELS 3 Zrotation Yrotation Xrotation
									JOINT LeftHandIndex2
									{
										OFFSET 6.364580 0.012062 0.178600
										CHANNELS 3 Zrotation Yrotation Xrotation
										JOINT LeftHandIndex3
										{
											OFFSET 3.662366 0.000001 -0.000000
											CHANNELS 3 Zrotation Yrotation Xrotation
											JOINT LeftHandIndex4
											{
												OFFSET 2.329242 0.000002 0.000004
												CHANNELS 3 Zrotation Yrotation Xrotation
												JOINT LeftHandIndexEnd
												{
													OFFSET 2.759619 -0.180539 -0.113024
													CHANNELS 3 Zrotation Yrotation Xrotation
													End Site
													{
														OFFSET 0.000000 0.000000 0.000000
													}
												}
											}
										}
									}
								}
								JOINT LeftHandMiddle1
								{
									OFFSET 3.163499 0.240981 1.000332
									CHANNELS 3 Zrotation Yrotation Xrotation
									JOINT LeftHandMiddle2
									{
										OFFSET 6.190778 -0.259277 -1.002549
										CHANNELS 3 Zrotation Yrotation Xrotation
										JOINT LeftHandMiddle3
										{
											OFFSET 4.356523 -0.000006 0.000000
											CHANNELS 3 Zrotation Yrotation Xrotation
											JOINT LeftHandMiddle4
											{
												OFFSET 2.996875 -0.000006 0.000001
												CHANNELS 3 Zrotation Yrotation Xrotation
												JOINT LeftHandMiddleEnd
												{
													OFFSET 2.304294 -0.294571 -0.031740
													CHANNELS 3 Zrotation Yrotation Xrotation
													End Site
													{
														OFFSET 0.000000 0.000000 0.000000
													}
												}
											}
										}
									}
								}
								JOINT LeftHandRing1
								{
									OFFSET 2.882641 -0.053651 -0.322543
									CHANNELS 3 Zrotation Yrotation Xrotation
									JOINT LeftHandRing2
									{
										OFFSET 5.854543 -0.486202 -1.373841
										CHANNELS 3 Zrotation Yrotation Xrotation
										JOINT LeftHandRing3
										{
											OFFSET 4.350580 -0.000001 0.000003
											CHANNELS 3 Zrotation Yrotation Xrotation
											JOINT LeftHandRing4
											{
												OFFSET 2.651324 0.000007 0.000003
												CHANNELS 3 Zrotation Yrotation Xrotation
												JOINT LeftHandRingEnd
												{
													OFFSET 1.936110 0.077686 -0.000070
													CHANNELS 3 Zrotation Yrotation Xrotation
													End Site
													{
														OFFSET 0.000000 0.000000 0.000000
													}
												}
											}
										}
									}
								}
								JOINT LeftHandPinky1
								{
									OFFSET 2.865500 -0.310004 -1.600378
									CHANNELS 3 Zrotation Yrotation Xrotation
									JOINT LeftHandPinky2
									{
										OFFSET 5.087852 -1.331141 -1.771231
										CHANNELS 3 Zrotation Yrotation Xrotation
										JOINT LeftHandPinky3
										{
											OFFSET 3.070975 0.000003 -0.000000
											CHANNELS 3 Zrotation Yrotation Xrotation
											JOINT LeftHandPinky4
											{
												OFFSET 1.549667 0.000000 0.000001
												CHANNELS 3 Zrotation Yrotation Xrotation
												JOINT LeftHandPinkyEnd
												{
													OFFSET 1.944895 -0.157802 0.057219
													CHANNELS 3 Zrotation Yrotation Xrotation
													End Site
													{
														OFFSET 0.000000 0.000000 0.000000
													}
												}
											}
										}
									}
								}
							}
						}
					}
				}
				JOINT RightShoulder
				{
					OFFSET -1.380118 23.180307 5.214158
					CHANNELS 3 Zrotation Yrotation Xrotation
					JOINT RightArm
					{
						OFFSET -15.037197 0.000013 -5.545604
						CHANNELS 3 Zrotation Yrotation Xrotation
						JOINT RightForeArm
						{
							OFFSET -28.736639 0.000002 -0.002597
							CHANNELS 3 Zrotation Yrotation Xrotation
							JOINT RightHand
							{
								OFFSET -27.133617 0.000000 0.002612
								CHANNELS 3 Zrotation Yrotation Xrotation
								JOINT RightHandThumb1
								{
									OFFSET -2.274037 -1.383989 3.163126
									CHANNELS 3 Zrotation Yrotation Xrotation
									JOINT RightHandThumb2
									{
										OFFSET -4.011429 -1.827468 1.640914
										CHANNELS 3 Zrotation Yrotation Xrotation
										JOINT RightHandThumb3
										{
											OFFSET -2.794934 -0.000003 -0.000003
											CHANNELS 3 Zrotation Yrotation Xrotation
											JOINT RightHandThumbEnd
											{
												OFFSET -3.183855 0.000003 -0.000000
												CHANNELS 3 Zrotation Yrotation Xrotation
												End Site
												{
													OFFSET 0.000000 0.000000 0.000000
												}
											}
										}
									}
								}
								JOINT RightHandIndex1
								{
									OFFSET -3.253269 -0.520059 2.282866
									CHANNELS 3 Zrotation Yrotation Xrotation
									JOINT RightHandIndex2
									{
										OFFSET -6.341918 0.012473 0.178265
										CHANNELS 3 Zrotation Yrotation Xrotation
										JOINT RightHandIndex3
										{
											OFFSET -3.654874 -0.000009 -0.000001
											CHANNELS 3 Zrotation Yrotation Xrotation
											JOINT RightHandIndex4
											{
												OFFSET -2.327586 -0.000001 0.000001
												CHANNELS 3 Zrotation Yrotation Xrotation
												JOINT RightHandIndexEnd
												{
													OFFSET -2.761789 -0.180656 -0.113078
													CHANNELS 3 Zrotation Yrotation Xrotation
													End Site
													{
														OFFSET 0.000000 0.000000 0.000000
													}
												}
											}
										}
									}
								}
								JOINT RightHandMiddle1
								{
									OFFSET -3.168106 0.246594 1.001031
									CHANNELS 3 Zrotation Yrotation Xrotation
									JOINT RightHandMiddle2
									{
										OFFSET -6.180830 -0.258836 -1.000896
										CHANNELS 3 Zrotation Yrotation Xrotation
										JOINT RightHandMiddle3
										{
											OFFSET -4.348906 -0.000000 -0.000000
											CHANNELS 3 Zrotation Yrotation Xrotation
											JOINT RightHandMiddle4
											{
												OFFSET -3.000242 -0.000003 -0.000003
												CHANNELS 3 Zrotation Yrotation Xrotation
												JOINT RightHandMiddleEnd
												{
													OFFSET -2.302518 -0.294371 -0.031706
													CHANNELS 3 Zrotation Yrotation Xrotation
													End Site
													{
														OFFSET 0.000000 0.000000 0.000000
													}
												}
											}
										}
									}
								}
								JOINT RightHandRing1
								{
									OFFSET -2.885693 -0.067952 -0.308858
									CHANNELS 3 Zrotation Yrotation Xrotation
									JOINT RightHandRing2
									{
										OFFSET -5.854196 -0.486132 -1.373732
										CHANNELS 3 Zrotation Yrotation Xrotation
										JOINT RightHandRing3
										{
											OFFSET -4.338814 -0.000003 -0.000001
											CHANNELS 3 Zrotation Yrotation Xrotation
											JOINT RightHandRing4
											{
												OFFSET -2.654905 -0.000004 0.000003
												CHANNELS 3 Zrotation Yrotation Xrotation
												JOINT RightHandRingEnd
												{
													OFFSET -1.933571 0.077524 -0.000052
													CHANNELS 3 Zrotation Yrotation Xrotation
													End Site
													{
														OFFSET 0.000000 0.000000 0.000000
													}
												}
											}
										}
									}
								}
								JOINT RightHandPinky1
								{
									OFFSET -2.866429 -0.342798 -1.584145
									CHANNELS 3 Zrotation Yrotation Xrotation
									JOINT RightHandPinky2
									{
										OFFSET -5.091370 -1.332053 -1.772384
										CHANNELS 3 Zrotation Yrotation Xrotation
										JOINT RightHandPinky3
										{
											OFFSET -3.062666 -0.000006 -0.000000
											CHANNELS 3 Zrotation Yrotation Xrotation
											JOINT RightHandPinky4
											{
												OFFSET -1.546527 0.000006 -0.000001
												CHANNELS 3 Zrotation Yrotation Xrotation
												JOINT RightHandPinkyEnd
												{
													OFFSET -1.945122 -0.157722 0.057211
													CHANNELS 3 Zrotation Yrotation Xrotation
													End Site
													{
														OFFSET 0.000000 0.000000 0.000000
													}
												}
											}
										}
									}
								}
							}
						}
					}
				}
			}
		}
	}
	JOINT LeftLeg
	{
		OFFSET 10.043214 -8.434526 2.595655
		CHANNELS 3 Zrotation Yrotation Xrotation
		JOINT LeftShin
		{
			OFFSET -0.000002 -43.221752 -0.802912
			CHANNELS 3 Zrotation Yrotation Xrotation
			JOINT LeftFoot
			{
				OFFSET 0.000001 -42.155094 -3.481524
				CHANNELS 3 Zrotation Yrotation Xrotation
				JOINT LeftToeBase
				{
					OFFSET -0.000000 -5.059475 13.231529
					CHANNELS 3 Zrotation Yrotation Xrotation
					JOINT LeftToeEnd
					{
						OFFSET -0.009607 -1.647616 6.513017
						CHANNELS 3 Zrotation Yrotation Xrotation
						End Site
						{
							OFFSET 0.000000 0.000000 0.000000
						}
					}
				}
			}
		}
	}
	JOINT RightLeg
	{
		OFFSET -10.047277 -8.295259 2.620317
		CHANNELS 3 Zrotation Yrotation Xrotation
		JOINT RightShin
		{
			OFFSET 0.000001 -43.362209 -0.805556
			CHANNELS 3 Zrotation Yrotation Xrotation
			JOINT RightFoot
			{
				OFFSET 0.000002 -42.117393 -3.478399
				CHANNELS 3 Zrotation Yrotation Xrotation
				JOINT RightToeBase
				{
					OFFSET -0.000001 -5.079609 13.284196
					CHANNELS 3 Zrotation Yrotation Xrotation
					JOINT RightToeEnd
					{
						OFFSET 0.009532 -1.634383 6.460591
						CHANNELS 3 Zrotation Yrotation Xrotation
						End Site
						{
							OFFSET 0.000000 0.000000 0.000000
						}
					}
				}
			}
		}
	}
}
MOTION
Frames: 4
Frame Time: 0.033333
-21.798573 88.602295 134.349854 -1.017633 -6.222202 -8.808203 1.923372 0.955806 0.361215 0.385246 2.086195 -4.428273 3.247995 1.128606 7.566094 -6.876194 6.427434 9.578865 0.230612 2.431264 -3.716978 0.115126 1.891514 -9.762236 0.000077 -0.000023 0.000006 0.007874 -0.028242 0.088860 0.723877 -3.747853 -10.599992 -0.721726 3.694278 -10.620865 -14.458735 -11.040195 7.515017 -24.861017 -29.663858 -30.353857 178.674454 -58.759323 -178.599060 -6.611363 -3.072742 -2.829945 -5.882100 9.861279 0.702590 -10.936858 -0.360575 7.156196 -0.000001 8.774814 -0.000001 -16.656311 17.467237 5.698806 -1.844031 2.498503 -2.507276 -10.163589 4.678940 4.621104 -20.975992 -0.000003 0.000002 -21.226255 2.451694 -3.593994 0.000001 -0.000006 -0.000000 -1.362679 2.240797 -0.746323 -21.334892 0.584909 3.008321 -13.821197 -0.000001 0.000002 -23.887129 -0.249080 -0.839480 -60.385609 2.730880 -1.368547 -0.294024 1.679687 0.833255 -14.218194 0.093214 1.300578 -34.212006 -0.287564 0.967170 -20.033178 0.964534 1.212842 0.000001 -0.000000 0.000000 -3.440384 0.788233 0.501656 -15.928167 -3.167306 2.999704 -6.338816 0.000000 0.000001 -18.123415 3.648177 -4.905661 -0.000004 -0.000001 -0.000002 9.112665 25.108994 10.050581 48.704014 48.849098 0.724666 179.161469 58.265678 179.852005 -13.384035 5.681938 -11.431626 2.243540 -5.255031 -3.180159 14.282877 -0.826594 6.952497 -0.000004 -12.690585 0.000001 15.503717 -17.771309 3.125115 1.665665 -1.955920 -2.878297 4.727794 -4.170582 4.993919 11.020511 0.000004 -0.000001 12.109032 -3.735709 -2.866779 -0.000001 0.000000 -0.000000 1.291984 -1.928547 -1.498087 14.800117 0.567468 3.865603 14.242554 -1.341735 -6.660647 19.631941 0.143926 -0.648245 49.335373 -0.457568 -5.936235 0.353029 -1.511149 -0.031941 20.222771 3.684306 2.316629 18.787249 0.000005 0.000001 10.751610 -0.479866 1.397905 -0.000001 0.000000 0.000000 3.273804 0.305947 -0.580111 21.486790 11.830359 2.266131 8.162916 -0.000000 0.000001 18.399054 -3.798976 -4.940566 0.000003 -0.000002 -0.000000 19.974796 8.047141 -20.653606 -0.501508 -0.670695 48.006981 -16.997831 -1.224349 -13.419797 1.611091 -1.910071 0.178205 -0.000000 -0.000000 0.000002 -22.428768 2.681698 7.363276 0.277583 1.354095 26.082191 25.751284 6.089247 -20.468136 -1.456514 1.106181 -0.844123 -0.000000 0.000000 -0.000001 
-22.036024 88.571503 134.423843 -1.132380 -6.217920 -8.731855 2.000002 0.946094 0.323028 0.391050 2.083105 -4.429403 3.257210 1.082579 7.643647 -6.893096 6.443488 9.456862 0.233186 2.501068 -3.708048 0.103124 1.999573 -9.733134 0.000077 -0.000023 0.000006 0.009144 -0.010815 0.088537 0.728244 -3.729540 -10.587342 -0.722807 3.703832 -10.602858 -14.595041 -11.040617 7.529922 -25.099091 -29.719357 -30.427357 178.793915 -58.651482 -178.643387 -6.615042 -3.158587 -2.848833 -5.882101 9.861278 0.702590 -10.936863 -0.360575 7.156198 0.000002 8.774815 -0.000001 -16.696260 17.502522 5.682737 -1.844030 2.498501 -2.507276 -10.163591 4.678939 4.621106 -20.975998 -0.000004 0.000004 -21.226255 2.451692 -3.593991 0.000000 -0.000006 -0.000000 -1.362682 2.240795 -0.746322 -21.334892 0.584909 3.008322 -13.821198 -0.000001 0.000003 -23.887133 -0.249077 -0.839479 -60.439186 2.755360 -1.343587 -0.294024 1.679686 0.833255 -14.218198 0.093216 1.300581 -34.212006 -0.287562 0.967173 -20.033180 0.964537 1.212844 -0.000001 -0.000001 0.000000 -3.440387 0.788231 0.501656 -15.928169 -3.167306 2.999705 -6.338817 -0.000001 0.000002 -18.123415 3.648178 -4.905658 -0.000004 -0.000002 -0.000002 9.091688 25.157051 10.042106 48.894215 48.871651 0.875391 179.250946 58.386143 179.860916 -13.323269 5.495009 -11.304832 2.243539 -5.255032 -3.180157 14.282877 -0.826595 6.952496 -0.000001 -12.690590 -0.000001 15.514847 -17.762392 3.108084 1.665664 -1.955920 -2.878295 4.727796 -4.170583 4.993919 11.020513 0.000002 -0.000001 12.109029 -3.735712 -2.866779 -0.000000 0.000000 -0.000001 1.291984 -1.928547 -1.498088 14.800109 0.567465 3.865603 14.242553 -1.341735 -6.660648 19.631939 0.143924 -0.648245 49.363663 -0.464270 -5.927742 0.353030 -1.511149 -0.031939 20.222771 3.684303 2.316627 18.787247 0.000005 -0.000001 10.751610 -0.479870 1.397904 -0.000000 0.000001 0.000001 3.273805 0.305947 -0.580110 21.486790 11.830359 2.266130 8.162916 -0.000003 -0.000001 18.399055 -3.798979 -4.940569 0.000003 -0.000003 -0.000000 20.260492 7.943835 -20.627127 -0.505865 -0.681138 47.930916 -17.248835 -1.225391 -13.441163 1.612777 -1.908144 0.194122 0.000000 -0.000000 0.000002 -22.148485 2.626072 7.225389 0.265745 1.345652 26.436995 25.621227 6.080517 -20.804853 -1.459468 1.115428 -0.851589 0.000000 0.000000 -0.000001 
-22.268095 88.567314 134.483017 -1.226173 -6.211198 -8.659112 2.055159 0.944943 0.300972 0.394320 2.053446 -4.433405 3.274541 1.059734 7.702495 -6.925040 6.426653 9.308744 0.254710 2.587106 -3.700297 0.109614 2.065839 -9.715433 0.000077 -0.000023 0.000006 0.010649 -0.004187 0.084834 0.735288 -3.723019 -10.587615 -0.725028 3.710302 -10.602728 -14.702261 -11.065410 7.520622 -25.219555 -29.773193 -30.532003 178.839340 -58.607044 -178.692581 -6.600917 -3.210343 -2.801696 -5.882101 9.861278 0.702591 -10.936858 -0.360576 7.156198 0.000001 8.774813 -0.000001 -16.756504 17.535734 5.661437 -1.844030 2.498502 -2.507276 -10.163589 4.678938 4.621104 -20.975996 -0.000005 0.000003 -21.226255 2.451693 -3.593992 0.000001 -0.000006 -0.000000 -1.362680 2.240795 -0.746323 -21.334887 0.584908 3.008321 -13.821194 -0.000002 0.000003 -23.887131 -0.249079 -0.839480 -60.494545 2.786711 -1.339899 -0.294025 1.679686 0.833255 -14.218195 0.093215 1.300580 -34.212002 -0.287562 0.967171 -20.033180 0.964534 1.212842 -0.000000 0.000000 0.000000 -3.440387 0.788233 0.501656 -15.928169 -3.167304 2.999704 -6.338817 -0.000001 0.000001 -18.123415 3.648176 -4.905660 -0.000004 -0.000000 -0.000002 9.076992 25.193865 10.049054 48.976460 48.848667 0.995303 179.365585 58.481960 179.883560 -13.251575 5.378347 -11.244389 2.243539 -5.255033 -3.180155 14.282877 -0.826594 6.952497 -0.000001 -12.690586 -0.000001 15.528735 -17.735888 3.081754 1.665665 -1.955919 -2.878297 4.727793 -4.170582 4.993918 11.020508 0.000003 -0.000002 12.109032 -3.735710 -2.866779 -0.000001 0.000000 0.000001 1.291984 -1.928547 -1.498087 14.800114 0.567467 3.865602 14.242554 -1.341735 -6.660649 19.631939 0.143925 -0.648244 49.409492 -0.442846 -5.921046 0.353029 -1.511149 -0.031941 20.222765 3.684304 2.316629 18.787241 0.000005 -0.000001 10.751611 -0.479869 1.397902 -0.000001 0.000000 0.000000 3.273804 0.305947 -0.580111 21.486794 11.830360 2.266132 8.162918 0.000000 -0.000001 18.399054 -3.798978 -4.940566 0.000002 -0.000002 -0.000000 20.515587 7.844883 -20.565722 -0.516115 -0.689173 47.767551 -17.500977 -1.224630 -13.414129 1.616347 -1.901238 0.215565 0.000000 -0.000000 0.000002 -21.881023 2.607066 7.112686 0.271917 1.343496 26.716421 25.490479 6.032829 -21.085606 -1.462725 1.128938 -0.839872 0.000000 0.000000 -0.000001 
-22.487732 88.579987 134.444519 -1.295563 -6.241922 -8.581336 2.095400 0.928617 0.282475 0.397945 2.060035 -4.443038 3.298562 1.024222 7.745119 -6.962285 6.405143 9.139927 0.281534 2.650763 -3.705229 0.135368 2.169522 -9.670549 0.000077 -0.000023 0.000006 0.009147 -0.005556 0.075798 0.737896 -3.721007 -10.588009 -0.733678 3.711245 -10.605159 -14.772559 -11.103700 7.543688 -25.213192 -29.775217 -30.686863 178.760559 -58.544697 -178.679001 -6.557358 -3.197274 -2.747089 -5.882100 9.861278 0.702590 -10.936863 -0.360575 7.156197 0.000002 8.774812 0.000001 -16.747021 17.555023 5.669599 -1.844033 2.498503 -2.507275 -10.163590 4.678938 4.621105 -20.975998 -0.000003 0.000001 -21.226255 2.451692 -3.593993 0.000001 -0.000006 -0.000000 -1.362678 2.240797 -0.746324 -21.334892 0.584910 3.008320 -13.821197 -0.000003 0.000002 -23.887133 -0.249078 -0.839481 -60.500427 2.828381 -1.331447 -0.294023 1.679686 0.833256 -14.218194 0.093215 1.300579 -34.212006 -0.287563 0.967168 -20.033180 0.964532 1.212842 -0.000000 0.000000 0.000000 -3.440384 0.788232 0.501655 -15.928169 -3.167305 2.999703 -6.338818 -0.000000 0.000000 -18.123415 3.648175 -4.905661 -0.000004 -0.000002 -0.000002 9.054338 25.220102 10.067758 49.049431 48.869202 1.150824 179.481873 58.533524 179.902832 -13.153080 5.305421 -11.132019 2.243540 -5.255033 -3.180154 14.282875 -0.826593 6.952497 -0.000004 -12.690592 -0.000000 15.605193 -17.733294 3.055037 1.665664 -1.955920 -2.878296 4.727794 -4.170583 4.993919 11.020512 0.000004 -0.000001 12.109029 -3.735708 -2.866779 -0.000000 -0.000000 -0.000001 1.291985 -1.928547 -1.498088 14.800114 0.567468 3.865605 14.242554 -1.341734 -6.660649 19.631939 0.143928 -0.648242 49.481438 -0.412404 -5.930230 0.353028 -1.511149 -0.031941 20.222769 3.684309 2.316629 18.787241 0.000006 0.000001 10.751609 -0.479867 1.397904 -0.000000 -0.000000 -0.000000 3.273804 0.305947 -0.580110 21.486786 11.830361 2.266131 8.162915 0.000000 -0.000001 18.399052 -3.798977 -4.940566 0.000003 -0.000002 -0.000000 20.727261 7.777078 -20.542650 -0.512149 -0.702959 47.554710 -17.704147 -1.195931 -13.270893 1.619687 -1.887144 0.212318 0.000000 -0.000000 0.000002 -21.620291 2.607927 6.872639 0.255519 1.355142 27.060429 25.362316 5.976302 -21.337269 -1.464994 1.134575 -0.843872 0.000000 0.000000 -0.000001 
